<svg width="590" height="362" viewBox="0 0 590 362" fill="none" xmlns="http://www.w3.org/2000/svg">
<path d="M291.53 361.237C289.583 361.237 287.647 360.729 285.943 359.742L268.159 349.219C265.505 347.734 266.801 347.207 267.677 346.902C271.219 345.673 271.937 345.389 275.718 343.245C276.111 343.022 276.634 343.107 277.041 343.346L290.703 351.457C291.198 351.731 291.897 351.731 292.353 351.457L345.619 320.713C346.115 320.43 346.433 319.859 346.433 319.271V257.799C346.433 257.198 346.115 256.637 345.606 256.331L292.362 225.614C291.87 225.326 291.217 225.326 290.721 225.614L237.49 256.341C236.973 256.637 236.645 257.217 236.645 257.799V319.271C236.645 319.859 236.973 320.417 237.485 320.695L252.077 329.126C259.994 333.085 264.842 328.422 264.842 323.738V263.046C264.842 262.187 265.531 261.511 266.39 261.511H273.143C273.989 261.511 274.687 262.187 274.687 263.046V323.738C274.687 334.305 268.933 340.365 258.915 340.365C255.837 340.365 253.413 340.365 246.646 337.03L232.678 328.989C229.227 326.994 227.091 323.265 227.091 319.271V257.799C227.091 253.806 229.227 250.077 232.678 248.091L285.943 217.311C289.314 215.406 293.794 215.406 297.138 217.311L350.401 248.091C353.85 250.086 355.995 253.806 355.995 257.799V319.271C355.995 323.265 353.85 326.981 350.401 328.989L297.138 359.742C295.435 360.729 293.503 361.237 291.53 361.237Z" fill="#689F63"/>
<path d="M307.983 318.886C284.674 318.886 279.791 308.188 279.791 299.213C279.791 298.36 280.477 297.678 281.33 297.678H288.217C288.986 297.678 289.627 298.232 289.747 298.982C290.787 305.993 293.887 309.532 307.983 309.532C319.205 309.532 323.982 306.993 323.982 301.04C323.982 297.608 322.627 295.06 305.189 293.352C290.614 291.91 281.599 288.69 281.599 277.032C281.599 266.284 290.658 259.874 305.847 259.874C322.911 259.874 331.355 265.797 332.425 278.504C332.465 278.942 332.31 279.362 332.018 279.689C331.726 279.994 331.319 280.181 330.89 280.181H323.977C323.261 280.181 322.627 279.672 322.482 278.977C320.823 271.6 316.79 269.242 305.847 269.242C293.595 269.242 292.171 273.51 292.171 276.709C292.171 280.584 293.851 281.71 310.394 283.9C326.763 286.064 334.539 289.128 334.539 300.633C334.539 312.238 324.862 318.886 307.983 318.886Z" fill="#689F63"/>
<path d="M372.844 253.711H374.635C376.099 253.711 376.373 252.68 376.373 252.083C376.373 250.506 375.285 250.506 374.688 250.506H372.844V253.711ZM370.668 248.659H374.635C375.993 248.659 378.656 248.659 378.656 251.703C378.656 253.822 377.297 254.255 376.48 254.527C378.059 254.635 378.165 255.668 378.381 257.134C378.492 258.056 378.656 259.634 378.979 260.175H376.537C376.48 259.634 376.099 256.699 376.099 256.538C375.94 255.884 375.719 255.56 374.905 255.56H372.897V260.175H370.668V248.659ZM365.917 254.39C365.917 259.171 369.775 263.028 374.499 263.028C379.28 263.028 383.136 259.09 383.136 254.39C383.136 249.611 379.227 245.808 374.499 245.808C369.828 245.808 365.917 249.555 365.917 254.39V254.39ZM384.791 254.419C384.791 260.067 380.172 264.684 374.525 264.684C368.929 264.684 364.259 260.122 364.259 254.419C364.259 248.607 369.04 244.151 374.525 244.151C380.067 244.151 384.791 248.607 384.791 254.419" fill="#689F63"/>
<path fill-rule="evenodd" clip-rule="evenodd" d="M126.583 120.734C126.583 118.279 125.291 116.023 123.172 114.807L66.6987 82.3069C65.744 81.7442 64.6733 81.4522 63.5907 81.4082H63.0067C61.9267 81.4522 60.8573 81.7442 59.888 82.3069L3.41466 114.807C1.30933 116.023 0 118.279 0 120.734L0.123993 208.247C0.123993 209.464 0.755993 210.596 1.82666 211.194C2.87466 211.822 4.17066 211.822 5.21466 211.194L38.7773 191.975C40.9 190.715 42.192 188.49 42.192 186.056V145.171C42.192 142.734 43.4827 140.478 45.5973 139.266L59.888 131.035C60.9533 130.42 62.1173 130.119 63.3067 130.119C64.4707 130.119 65.664 130.42 66.6987 131.035L80.9853 139.266C83.1 140.478 84.396 142.734 84.396 145.171V186.056C84.396 188.49 85.7053 190.728 87.8147 191.975L121.368 211.194C122.42 211.822 123.735 211.822 124.777 211.194C125.817 210.596 126.472 209.464 126.472 208.247L126.583 120.734Z" fill="white"/>
<path fill-rule="evenodd" clip-rule="evenodd" d="M393.071 166.302C393.071 166.91 392.746 167.474 392.218 167.776L372.821 178.958C372.294 179.26 371.645 179.26 371.118 178.958L351.721 167.776C351.191 167.474 350.867 166.91 350.867 166.302V143.903C350.867 143.295 351.191 142.731 351.719 142.426L371.115 131.223C371.645 130.918 372.294 130.918 372.823 131.223L392.219 142.426C392.746 142.731 393.071 143.295 393.071 143.903V166.302ZM398.313 0.430922C397.255 -0.155745 395.966 -0.143756 394.922 0.469577C393.881 1.08158 393.239 2.20159 393.239 3.41092V90.0776C393.239 90.9296 392.783 91.7189 392.047 92.1456C391.309 92.5723 390.398 92.5723 389.659 92.1456L375.514 83.9963C373.405 82.7789 370.809 82.7816 368.698 83.9976L312.203 116.602C310.091 117.82 308.791 120.072 308.791 122.51V187.731C308.791 190.168 310.091 192.419 312.201 193.64L368.694 226.268C370.806 227.487 373.406 227.487 375.518 226.268L432.021 193.64C434.13 192.419 435.431 190.168 435.431 187.731V25.1496C435.431 22.6776 434.093 20.3976 431.933 19.1923L398.313 0.430922Z" fill="white"/>
<path fill-rule="evenodd" clip-rule="evenodd" d="M586.434 143.318C588.535 142.098 589.828 139.85 589.828 137.419V121.614C589.828 119.183 588.535 116.934 586.431 115.714L530.299 83.1229C528.187 81.8949 525.58 81.8935 523.463 83.1135L466.988 115.718C464.878 116.936 463.578 119.187 463.578 121.624V186.828C463.578 189.282 464.894 191.544 467.023 192.756L523.147 224.736C525.216 225.918 527.754 225.931 529.836 224.774L563.783 205.906C564.86 205.306 565.531 204.176 565.538 202.947C565.546 201.716 564.891 200.578 563.826 199.966L506.992 167.346C505.931 166.738 505.278 165.607 505.278 164.387V143.952C505.278 142.734 505.928 141.606 506.986 140.998L524.674 130.8C525.726 130.192 527.026 130.192 528.079 130.8L545.775 140.998C546.832 141.606 547.482 142.734 547.482 143.952V160.03C547.482 161.251 548.135 162.379 549.192 162.987C550.25 163.598 551.552 163.592 552.607 162.98L586.434 143.318Z" fill="white"/>
<path fill-rule="evenodd" clip-rule="evenodd" d="M526.049 140.263C526.454 140.029 526.953 140.029 527.358 140.263L538.198 146.517C538.603 146.751 538.853 147.183 538.853 147.651V160.169C538.853 160.638 538.603 161.069 538.198 161.303L527.358 167.558C526.953 167.793 526.454 167.793 526.049 167.558L515.217 161.303C514.811 161.069 514.562 160.638 514.562 160.169V147.651C514.562 147.183 514.811 146.751 515.217 146.517L526.049 140.263Z" fill="#689F63"/>
<path d="M214.302 83.4535L158.123 115.873C156.022 117.085 154.73 119.324 154.73 121.749V186.637C154.73 189.061 156.022 191.3 158.122 192.515L214.299 224.96C216.4 226.172 218.987 226.172 221.087 224.96L277.252 192.515C279.351 191.3 280.643 189.061 280.643 186.637V121.747C280.643 119.324 279.351 117.085 277.25 115.873L221.086 83.4535C220.036 82.8481 218.864 82.5441 217.694 82.5441C216.522 82.5441 215.351 82.8481 214.302 83.4535" fill="url(#paint0_linear)"/>
<path d="M156.126 190.759C156.66 191.459 157.334 192.059 158.122 192.515L206.312 220.347L214.335 224.96C215.535 225.652 216.904 225.946 218.25 225.847C218.699 225.81 219.147 225.727 219.584 225.6L278.824 117.124C278.371 116.638 277.843 116.215 277.25 115.874L240.466 94.6402L221.027 83.4535C220.471 83.1335 219.875 82.9029 219.263 82.7522L156.126 190.759Z" fill="url(#paint1_linear)"/>
<path d="M212.428 71.5362L211.655 71.9775H212.687L212.428 71.5362Z" fill="url(#paint2_linear)"/>
<path d="M217.012 82.5802C216.072 82.6735 215.148 82.9655 214.302 83.4535L158.283 115.78L218.674 225.797C219.511 225.676 220.331 225.396 221.087 224.96L277.252 192.515C278.987 191.511 280.171 189.807 280.53 187.879L218.959 82.6922C218.504 82.6015 218.042 82.5561 217.579 82.5561C217.39 82.5561 217.2 82.5642 217.012 82.5802" fill="url(#paint3_linear)"/>
<path d="M282.631 191.471L282.259 190.835V191.687L282.631 191.471Z" fill="url(#paint4_linear)"/>
<path d="M277.394 192.515L221.158 224.959C220.384 225.405 219.54 225.685 218.676 225.803L219.796 227.843L282.259 191.687V190.835L280.715 188.196C280.252 189.993 279.031 191.567 277.394 192.515" fill="url(#paint5_linear)"/>
<path d="M277.394 192.515L221.158 224.959C220.384 225.405 219.54 225.685 218.676 225.803L219.796 227.843L282.259 191.687V190.835L280.715 188.196C280.252 189.993 279.031 191.567 277.394 192.515" fill="url(#paint6_linear)"/>
<defs>
<linearGradient id="paint0_linear" x1="240.528" y1="107.597" x2="189.775" y2="211.133" gradientUnits="userSpaceOnUse">
<stop stop-color="#687E67"/>
<stop offset="0.528804" stop-color="#687E67"/>
<stop offset="1" stop-color="#83A178"/>
</linearGradient>
<linearGradient id="paint1_linear" x1="209.136" y1="161.782" x2="351.546" y2="56.5622" gradientUnits="userSpaceOnUse">
<stop stop-color="#687E67"/>
<stop offset="0.137556" stop-color="#687E67"/>
<stop offset="0.697374" stop-color="#9BB48F"/>
<stop offset="0.908084" stop-color="#9BB48F"/>
<stop offset="1" stop-color="#9BB48F"/>
</linearGradient>
<linearGradient id="paint2_linear" x1="152.742" y1="71.7566" x2="282.631" y2="71.7566" gradientUnits="userSpaceOnUse">
<stop stop-color="#9BB48F"/>
<stop offset="0.0919165" stop-color="#9BB48F"/>
<stop offset="0.302626" stop-color="#9BB48F"/>
<stop offset="0.862444" stop-color="#687E67"/>
<stop offset="1" stop-color="#687E67"/>
</linearGradient>
<linearGradient id="paint3_linear" x1="152.742" y1="154.18" x2="282.631" y2="154.18" gradientUnits="userSpaceOnUse">
<stop stop-color="#9BB48F"/>
<stop offset="0.0919165" stop-color="#9BB48F"/>
<stop offset="0.302626" stop-color="#9BB48F"/>
<stop offset="0.862444" stop-color="#687E67"/>
<stop offset="1" stop-color="#687E67"/>
</linearGradient>
<linearGradient id="paint4_linear" x1="152.746" y1="191.26" x2="282.631" y2="191.26" gradientUnits="userSpaceOnUse">
<stop stop-color="#9BB48F"/>
<stop offset="0.0919165" stop-color="#9BB48F"/>
<stop offset="0.302626" stop-color="#9BB48F"/>
<stop offset="0.862444" stop-color="#687E67"/>
<stop offset="1" stop-color="#687E67"/>
</linearGradient>
<linearGradient id="paint5_linear" x1="152.742" y1="208.02" x2="282.631" y2="208.02" gradientUnits="userSpaceOnUse">
<stop stop-color="#9BB48F"/>
<stop offset="0.0919165" stop-color="#9BB48F"/>
<stop offset="0.302626" stop-color="#9BB48F"/>
<stop offset="0.862444" stop-color="#687E67"/>
<stop offset="1" stop-color="#687E67"/>
</linearGradient>
<linearGradient id="paint6_linear" x1="301.555" y1="104.527" x2="221.447" y2="267.947" gradientUnits="userSpaceOnUse">
<stop stop-color="#687E67"/>
<stop offset="0.528804" stop-color="#687E67"/>
<stop offset="1" stop-color="#83A178"/>
</linearGradient>
</defs>
</svg>
